<svg width="48" height="48" viewBox="0 0 512 512" fill="none" xmlns="http://www.w3.org/2000/svg">
<path d="M477.5 128C463 103.05 285.13 0 256.16 0C227.19 0 49.25 102.79 34.84 128C20.43 153.21 20.35 358.8 34.84 384C49.33 409.2 227.22 512 256.16 512C285.1 512 463 409.08 477.49 384C491.98 358.92 492 153 477.5 128ZM316.13 414.22C312.13 414.22 275.22 378.45 278.13 375.53C279 374.66 284.39 374.05 295.68 373.7C295.68 347.47 296.27 305.11 296.62 287.38C296.62 285.38 296.18 283.95 296.18 281.53H216.25C216.25 288.63 215.79 317.73 217.62 354.41C217.85 358.95 216.04 360.41 211.88 360.35C201.75 360.35 191.61 360.24 181.47 360.27C177.37 360.27 175.6 358.74 175.73 354.16C176.65 320.72 178.73 270.16 175.58 141.49V138.32C165.91 137.97 159.2 137.32 158.32 136.48C155.4 133.56 192.86 97.79 196.81 97.79C200.76 97.79 237.98 133.57 235.08 136.48C234.21 137.35 227.18 137.97 218.31 138.32V141.48C215.89 167.23 216.31 221.07 215.68 246.87H295.94C295.94 242.32 296.33 212.13 294.74 163.23C294.64 159.84 295.69 158.06 298.95 158.03C310.02 157.95 321.1 157.9 332.18 157.97C335.64 157.97 336.75 159.69 336.68 163.35C333 354.64 336 341.29 336 373.69C344.87 374.04 352.82 374.69 353.69 375.53C356.57 378.44 320.07 414.22 316.11 414.22H316.13Z" fill="#BBBBBB"/>
</svg>